<?xml version="1.0" encoding="UTF-8" standalone="no"?>
<svg width="33px" height="30px" viewBox="0 0 33 30" version="1.1" xmlns="http://www.w3.org/2000/svg" xmlns:xlink="http://www.w3.org/1999/xlink" xmlns:sketch="http://www.bohemiancoding.com/sketch/ns">
    <!-- Generator: Sketch 3.4 (15575) - http://www.bohemiancoding.com/sketch -->
    <title>Shape</title>
    <desc>Created with Sketch.</desc>
    <defs></defs>
    <g id="Page-1" stroke="none" stroke-width="1" fill="none" fill-rule="evenodd" sketch:type="MSPage">
        <g id="Slack" sketch:type="MSArtboardGroup" transform="translate(-249.000000, -22.000000)" fill="#555459">
            <path d="M260.017193,22 C257.990706,22 256.327602,23.6598513 256.327602,25.6696097 L256.327602,26.3959108 L252.677045,26.3959108 C250.663104,26.3959108 249,28.0557621 249,30.0659851 L249,41.0241636 C249,43.0339219 250.650093,44.6812268 252.663569,44.6937732 L252.663569,50.1802974 C252.663569,50.6082714 252.949349,51.0362454 253.339219,51.204461 C253.7421,51.3601301 254.235595,51.2695167 254.547398,50.9581784 L260.822491,44.6947026 L270.982342,44.6947026 C271.969796,44.6947026 272.879182,44.3057621 273.541822,43.6575279 L276.452138,46.5622677 C276.763941,46.8736059 277.257435,46.9776952 277.660781,46.8085502 C278.050186,46.6403346 278.335967,46.2249071 278.335967,45.7969331 L278.335967,40.2983271 C280.349907,40.2983271 282,38.6384758 282,36.6282528 L282,25.6700743 C282,23.6598513 280.336896,22.0004647 278.32342,22.0004647 L260.017193,22.0004647 L260.017193,22 L260.017193,22 Z M260.017193,24.204461 L278.32342,24.204461 C279.167751,24.204461 279.804368,24.839684 279.804368,25.6696097 L279.804368,36.6277881 C279.804368,37.4707249 279.168216,38.1064126 278.32342,38.1064126 L277.231877,38.1064126 C276.660316,38.1064126 276.127323,38.625 276.127323,39.2086431 L276.127323,43.1380112 L274.607807,41.6208178 C274.646375,41.4265799 274.672862,41.2193309 274.672862,41.0246283 L274.672862,30.0659851 C274.672862,28.0557621 273.009758,26.3959108 270.983271,26.3959108 L258.536245,26.3959108 L258.536245,25.6696097 C258.536245,24.839684 259.172862,24.204461 260.017193,24.204461 L260.017193,24.204461 L260.017193,24.204461 Z M252.677045,28.5878253 L270.982807,28.5878253 C271.827138,28.5878253 272.464219,29.223513 272.464219,30.0664498 L272.464219,41.0246283 C272.464219,41.8671004 271.827602,42.5032528 270.982807,42.5032528 L260.36803,42.5032528 C260.082249,42.4902416 259.796468,42.6198885 259.588755,42.8145911 L254.872212,47.5343866 L254.872212,43.5920074 C254.872212,43.0213755 254.339684,42.5027881 253.768123,42.5027881 L252.677045,42.5027881 C251.832714,42.5027881 251.195632,41.8671004 251.195632,41.0241636 L251.195632,30.0659851 C251.195632,29.223513 251.832249,28.5878253 252.677045,28.5878253 L252.677045,28.5878253 L252.677045,28.5878253 Z M256.704461,34.0864312 C255.886152,34.0864312 255.236524,34.7476766 255.236524,35.5515799 C255.236524,36.3684944 255.886152,37.0167286 256.704461,37.0167286 C257.509758,37.0167286 258.172398,36.3680297 258.172398,35.5515799 C258.172398,34.7476766 257.509758,34.0864312 256.704461,34.0864312 L256.704461,34.0864312 L256.704461,34.0864312 Z M261.835967,34.0864312 C261.017193,34.0864312 260.36803,34.7476766 260.36803,35.5515799 C260.36803,36.3684944 261.017193,37.0167286 261.835967,37.0167286 C262.641729,37.0167286 263.304368,36.3680297 263.304368,35.5515799 C263.304368,34.7476766 262.642193,34.0864312 261.835967,34.0864312 L261.835967,34.0864312 L261.835967,34.0864312 Z M266.967937,34.0864312 C266.162639,34.0864312 265.5,34.7476766 265.5,35.5515799 C265.5,36.3684944 266.162639,37.0167286 266.967937,37.0167286 C267.773234,37.0167286 268.435874,36.3680297 268.435874,35.5515799 C268.435874,34.7476766 267.773699,34.0864312 266.967937,34.0864312 L266.967937,34.0864312 L266.967937,34.0864312 Z" id="Shape" sketch:type="MSShapeGroup"></path>
        </g>
    </g>
</svg>