<?xml version="1.0" encoding="UTF-8" standalone="no"?>
<svg width="17px" height="17px" viewBox="0 0 17 17" version="1.1" xmlns="http://www.w3.org/2000/svg" xmlns:xlink="http://www.w3.org/1999/xlink" xmlns:sketch="http://www.bohemiancoding.com/sketch/ns">
    <!-- Generator: Sketch 3.4 (15575) - http://www.bohemiancoding.com/sketch -->
    <title>noun_105509_cc</title>
    <desc>Created with Sketch.</desc>
    <defs></defs>
    <g id="Page-1" stroke="none" stroke-width="1" fill="none" fill-rule="evenodd" sketch:type="MSPage">
        <g id="Slack" sketch:type="MSArtboardGroup" transform="translate(-1100.000000, -244.000000)" fill="#4A4A4A">
            <g id="noun_105509_cc" sketch:type="MSLayerGroup" transform="translate(1100.000000, 244.000000)">
                <g id="Group" sketch:type="MSShapeGroup">
                    <g id="Shape">
                        <path d="M10.7666667,3.72380952 L2.91428571,3.72380952 C2.79285714,3.72380952 2.63095238,3.72380952 2.46904762,3.76428571 L2.46904762,3.76428571 C1.13333333,3.96666667 0.161904762,5.14047619 0.161904762,6.47619048 L0.161904762,10.8071429 C0.161904762,12.3452381 1.41666667,13.5595238 2.91428571,13.5595238 L2.9952381,13.5595238 L2.9952381,15.9880952 C2.9952381,16.0690476 3.03571429,16.1095238 3.07619048,16.15 L3.11666667,16.15 C3.15714286,16.15 3.19761905,16.15 3.23809524,16.1095238 L5.74761905,13.6 L10.7261905,13.6 C12.1428571,13.6 13.3166667,12.547619 13.4785714,11.1309524 L13.4785714,11.1309524 L13.4785714,10.847619 L13.4785714,6.47619048 C13.5190476,4.93809524 12.2642857,3.72380952 10.7666667,3.72380952 L10.7666667,3.72380952 Z M3.31904762,15.4214286 L3.48095238,15.4214286 L3.31904762,15.5833333 L3.31904762,15.4214286 L3.31904762,15.4214286 Z"></path>
                        <path d="M6.47619048,0.080952381 C5.01904762,0.080952381 3.8047619,1.13333333 3.56190476,2.55 C3.8047619,2.46904762 4.04761905,2.46904762 4.33095238,2.46904762 L11.697619,2.46904762 C13.3166667,2.46904762 14.652381,3.8047619 14.652381,5.42380952 L14.652381,9.14761905 C14.652381,9.30952381 14.652381,9.47142857 14.6119048,9.63333333 C15.8666667,9.30952381 16.8380952,8.13571429 16.8380952,6.75952381 L16.8380952,3.03571429 C16.8380952,1.41666667 15.502381,0.080952381 13.8833333,0.080952381 L6.47619048,0.080952381 Z"></path>
                    </g>
                </g>
            </g>
        </g>
    </g>
</svg>