<?xml version="1.0" encoding="UTF-8" standalone="no"?>
<svg width="40px" height="39px" viewBox="0 0 40 39" version="1.1" xmlns="http://www.w3.org/2000/svg" xmlns:xlink="http://www.w3.org/1999/xlink" xmlns:sketch="http://www.bohemiancoding.com/sketch/ns">
    <!-- Generator: Sketch 3.4 (15575) - http://www.bohemiancoding.com/sketch -->
    <title>Shape</title>
    <desc>Created with Sketch.</desc>
    <defs></defs>
    <g id="Page-1" stroke="none" stroke-width="1" fill="none" fill-rule="evenodd" sketch:type="MSPage">
        <g id="Slack" sketch:type="MSArtboardGroup" transform="translate(-250.000000, -18.000000)" fill="#4A4A4A">
            <path d="M289.219442,43.3007692 C287.816642,43.5133146 285.776206,43.2582601 283.905806,41.8554603 L283.863297,41.8979694 C281.992898,43.0032056 279.909953,43.5558237 277.784498,43.5983328 C277.69948,41.9404785 277.316898,40.2826243 276.679262,38.7097882 C275.914099,36.7968794 274.766353,35.0965161 273.321045,33.6086981 C271.875736,32.1633893 270.132863,31.0156441 268.219955,30.2504806 C267.199737,29.8253897 266.179519,29.5278261 265.116792,29.3577898 C265.456864,26.7647357 266.647119,24.2566998 268.645045,22.2162638 C273.53359,17.3277192 281.44028,17.3277192 286.328824,22.2162638 C291.047332,26.934772 291.217369,34.4163707 286.838933,39.3474244 L286.711406,39.4324426 C287.179006,40.4526606 287.986678,41.7279331 289.30446,42.3655693 C289.77206,42.5781148 289.687042,43.215751 289.219442,43.3007692 L289.219442,43.3007692 Z M271.323118,35.6491342 C276.211662,40.5376788 276.211662,48.4443683 271.323118,53.3329129 C267.199737,57.456294 260.950901,58.0939302 256.147375,55.2883307 L256.104866,55.2458216 C254.234466,56.6911305 252.19403,56.9036759 250.79123,56.6911305 C250.32363,56.6061123 250.238612,55.9684761 250.663703,55.7559306 C251.938976,55.1182944 252.746648,53.8430219 253.256757,52.8228039 L253.12923,52.7377857 C248.793303,47.806732 248.96334,40.3251333 253.639339,35.6066251 C258.527884,30.7605896 266.434573,30.7605896 271.323118,35.6491342 L271.323118,35.6491342 Z M272.045772,44.4910235 C272.045772,39.2198972 267.752355,34.9264797 262.481228,34.9264797 C257.210102,34.9264797 252.916685,39.2198972 252.916685,44.4910235 C252.916685,49.7621499 257.210102,54.0555673 262.481228,54.0555673 C267.752355,54.0555673 272.045772,49.7621499 272.045772,44.4910235 L272.045772,44.4910235 Z M263.161374,41.175315 L262.481228,41.8554603 L261.801083,41.175315 C260.525811,39.9000425 258.485375,39.9000425 257.210102,41.175315 C255.934829,42.4505875 255.934829,44.4910235 257.210102,45.766296 L257.890247,46.4464414 L262.481228,51.0374224 L267.072209,46.4464414 L267.752355,45.766296 C269.027627,44.4910235 269.027627,42.4505875 267.752355,41.175315 C266.477082,39.9425516 264.394137,39.9425516 263.161374,41.175315 L263.161374,41.175315 Z" id="Shape" sketch:type="MSShapeGroup"></path>
        </g>
    </g>
</svg>