<?xml version="1.0" encoding="UTF-8" standalone="no"?>
<svg width="15px" height="15px" viewBox="0 0 15 15" version="1.1" xmlns="http://www.w3.org/2000/svg" xmlns:xlink="http://www.w3.org/1999/xlink" xmlns:sketch="http://www.bohemiancoding.com/sketch/ns">
    <!-- Generator: Sketch 3.4 (15575) - http://www.bohemiancoding.com/sketch -->
    <title>Shape</title>
    <desc>Created with Sketch.</desc>
    <defs></defs>
    <g id="Page-1" stroke="none" stroke-width="1" fill="none" fill-rule="evenodd" sketch:type="MSPage">
        <g id="Slack" sketch:type="MSArtboardGroup" transform="translate(-1180.000000, -400.000000)" fill="#3AA3E3">
            <g id="noun_45589_cc" sketch:type="MSLayerGroup" transform="translate(1180.000000, 400.000000)">
                <g id="Group" sketch:type="MSShapeGroup">
                    <path d="M11.1352492,4.63451703e-07 C10.2653236,0.000454022152 9.40809763,0.323841376 8.75406599,0.977873022 L6.9824657,2.74947331 L7.94627794,3.71328554 L9.71787823,1.94168526 C10.496185,1.16337853 11.7797561,1.16111074 12.6093149,1.95574558 C13.4161959,2.72860961 13.3971464,3.99630617 12.6093149,4.83312198 C12.6047794,4.83811112 12.5997902,4.84219315 12.5952546,4.8471823 L9.43440404,8.00803288 C8.65609731,8.78633961 7.35846587,8.80312128 6.528907,8.00803288 L5.57915508,8.98590544 C6.92667798,10.2771871 9.09015298,10.2799084 10.3982163,8.97184512 L13.5731272,5.79693422 C14.8576054,4.45666826 14.9247321,2.28638987 13.5590669,0.977873022 C12.8850786,0.332005432 12.0051748,-0.000453095249 11.1352492,4.63451703e-07 L11.1352492,4.63451703e-07 Z M6.55702764,4.53558747 C5.68710205,4.53604103 4.81581579,4.85942838 4.16178414,5.51346003 L0.98687324,8.68837093 C0.986824808,8.69305758 0.986824808,8.6977446 0.98687324,8.70243125 C-0.297605,10.0426972 -0.364731688,12.2129756 1.00093356,13.5214924 C2.34845646,14.8127741 4.49787114,14.8154954 5.80593443,13.5074321 L7.62016924,11.6931973 L6.656357,10.7293851 L4.84212219,12.5436199 C4.06381546,13.3219266 2.78024434,13.3387083 1.95068548,12.5436199 C1.13926896,11.7657667 1.16285402,10.488999 1.9647458,9.65218317 L5.12559638,6.47727227 C5.90390311,5.69896554 7.20153455,5.69669774 8.03109342,6.49133259 L8.98084534,5.51346003 C8.30685711,4.86759244 7.42695323,4.53513391 6.55702764,4.53558747 L6.55702764,4.53558747 Z" id="Shape"></path>
                </g>
            </g>
        </g>
    </g>
</svg>