<?xml version="1.0" encoding="UTF-8" standalone="no"?>
<svg width="12px" height="3px" viewBox="0 0 12 3" version="1.1" xmlns="http://www.w3.org/2000/svg" xmlns:xlink="http://www.w3.org/1999/xlink" xmlns:sketch="http://www.bohemiancoding.com/sketch/ns">
    <!-- Generator: Sketch 3.4 (15575) - http://www.bohemiancoding.com/sketch -->
    <title>Shape</title>
    <desc>Created with Sketch.</desc>
    <defs></defs>
    <g id="Page-1" stroke="none" stroke-width="1" fill="none" fill-rule="evenodd" sketch:type="MSPage">
        <g id="Slack" sketch:type="MSArtboardGroup" transform="translate(-1174.000000, -368.000000)" fill="#3AA3E3">
            <path d="M1175.36364,370.727273 C1176.11675,370.727273 1176.72727,370.116752 1176.72727,369.363636 C1176.72727,368.610521 1176.11675,368 1175.36364,368 C1174.61052,368 1174,368.610521 1174,369.363636 C1174,370.116752 1174.61052,370.727273 1175.36364,370.727273 L1175.36364,370.727273 L1175.36364,370.727273 Z M1180,370.727273 C1180.75312,370.727273 1181.36364,370.116752 1181.36364,369.363636 C1181.36364,368.610521 1180.75312,368 1180,368 C1179.24688,368 1178.63636,368.610521 1178.63636,369.363636 C1178.63636,370.116752 1179.24688,370.727273 1180,370.727273 L1180,370.727273 L1180,370.727273 Z M1184.63636,370.727273 C1185.38948,370.727273 1186,370.116752 1186,369.363636 C1186,368.610521 1185.38948,368 1184.63636,368 C1183.88325,368 1183.27273,368.610521 1183.27273,369.363636 C1183.27273,370.116752 1183.88325,370.727273 1184.63636,370.727273 L1184.63636,370.727273 L1184.63636,370.727273 Z" id="Shape" sketch:type="MSShapeGroup"></path>
        </g>
    </g>
</svg>