<?xml version="1.0" encoding="UTF-8" standalone="no"?>
<svg width="19px" height="19px" viewBox="0 0 19 19" version="1.1" xmlns="http://www.w3.org/2000/svg" xmlns:xlink="http://www.w3.org/1999/xlink" xmlns:sketch="http://www.bohemiancoding.com/sketch/ns">
    <!-- Generator: Sketch 3.4 (15575) - http://www.bohemiancoding.com/sketch -->
    <title>Rectangle 81 + Shape</title>
    <desc>Created with Sketch.</desc>
    <defs></defs>
    <g id="Page-1" stroke="none" stroke-width="1" fill="none" fill-rule="evenodd" sketch:type="MSPage">
        <g id="Slack" sketch:type="MSArtboardGroup" transform="translate(-1143.000000, -281.000000)">
            <g id="Rectangle-81-+-Shape" sketch:type="MSLayerGroup" transform="translate(1143.000000, 281.000000)">
                <path d="M4.63654224,18.2299995 L4.63654224,18.2299995 C3.46954813,18.2299995 2.52259332,17.3412756 2.52259332,16.2460432 L2.52259332,14.9738035 C1.07662083,14.6345396 0,13.4028641 0,11.9388666 L0,6.12712824 C0,4.40130746 1.49312377,3 3.33202358,3 L12.589391,3 C14.4282908,3 15.9214145,4.40130746 15.9214145,6.12712824 L15.9214145,11.9425542 C15.9214145,13.668375 14.4282908,15.0696824 12.589391,15.0696824 L8.71905697,15.0696824 C8.55009823,15.0696824 8.39685658,15.1508108 8.31041257,15.2761909 C7.66994106,16.2607938 6.86444008,17.1163289 5.91748527,17.8096073 C5.54420432,18.0861811 5.10019646,18.2299995 4.63654224,18.2299995 L4.63654224,18.2299995 Z M3.33202358,4.61999512 C2.38899804,4.61999512 1.61886051,5.32720926 1.61886051,6.20125341 L1.61886051,11.9206211 C1.61886051,12.7910385 2.38506876,13.5018794 3.33202358,13.5018794 C3.77996071,13.5018794 4.14145383,13.8355394 4.14145383,14.2489877 L4.14145383,16.1566525 C4.14145383,16.4359114 4.39685658,16.6099949 4.63261297,16.6099949 L4.63261297,16.6099949 C4.73477407,16.6099949 4.82907662,16.5773542 4.91552063,16.5156997 C5.70923379,15.9426749 6.38506876,15.2354607 6.92337917,14.4194444 C7.30058939,13.8500464 7.98428291,13.4982527 8.7151277,13.4982527 L12.5854617,13.4982527 C13.5284872,13.4982527 14.2986248,12.7910385 14.2986248,11.9169944 L14.2986248,6.20125341 C14.2986248,5.330836 13.5324165,4.61999512 12.5854617,4.61999512 L3.33202358,4.61999512 L3.33202358,4.61999512 Z" id="Shape" fill="#555459" sketch:type="MSShapeGroup"></path>
                <rect id="Rectangle-81" fill="#FFFFFF" sketch:type="MSShapeGroup" x="10" y="1" width="8" height="8"></rect>
                <path d="M16.0590421,2.94089687 L16.0590421,1.1583252 C16.0590421,0.676338196 15.674414,0.299987793 15.1999512,0.299987793 C14.7221805,0.299987793 14.3408602,0.684278538 14.3408602,1.1583252 L14.3408602,2.94089687 L12.5582886,2.94089687 C12.0763016,2.94089687 11.6999512,3.32552498 11.6999512,3.79998779 C11.6999512,4.27775848 12.0842419,4.65907872 12.5582886,4.65907872 L14.3408602,4.65907872 L14.3408602,6.44165039 C14.3408602,6.92363739 14.7254884,7.29998779 15.1999512,7.29998779 C15.6777219,7.29998779 16.0590421,6.91569705 16.0590421,6.44165039 L16.0590421,4.65907872 L17.8416138,4.65907872 C18.3236008,4.65907872 18.6999512,4.27445061 18.6999512,3.79998779 C18.6999512,3.32221711 18.3156604,2.94089687 17.8416138,2.94089687 L16.0590421,2.94089687 Z" id="Rectangle-80" fill="#555459" sketch:type="MSShapeGroup"></path>
            </g>
        </g>
    </g>
</svg>