<?xml version="1.0" encoding="UTF-8" standalone="no"?>
<svg width="33px" height="32px" viewBox="0 0 33 32" version="1.1" xmlns="http://www.w3.org/2000/svg" xmlns:xlink="http://www.w3.org/1999/xlink" xmlns:sketch="http://www.bohemiancoding.com/sketch/ns">
    <!-- Generator: Sketch 3.4 (15575) - http://www.bohemiancoding.com/sketch -->
    <title>Shape</title>
    <desc>Created with Sketch.</desc>
    <defs></defs>
    <g id="Page-1" stroke="none" stroke-width="1" fill="none" fill-rule="evenodd" sketch:type="MSPage">
        <g id="Slack" sketch:type="MSArtboardGroup" transform="translate(-1096.000000, -340.000000)" fill="#555459">
            <g id="noun_45589_cc" sketch:type="MSLayerGroup" transform="translate(1096.000000, 340.000000)">
                <g id="Group" sketch:type="MSShapeGroup">
                    <path d="M24.5508446,1.02181196e-06 C22.6328446,0.00100102181 20.7428446,0.714001022 19.3008446,2.15600102 L15.3948446,6.06200102 L17.5198446,8.18700102 L21.4258446,4.28100102 C23.1418446,2.56500102 25.9718446,2.56000102 27.8008446,4.31200102 C29.5798446,6.01600102 29.5378446,8.81100102 27.8008446,10.656001 C27.7908446,10.667001 27.7798446,10.676001 27.7698446,10.687001 L20.8008446,17.656001 C19.0848446,19.372001 16.2238446,19.409001 14.3948446,17.656001 L12.3008446,19.812001 C15.2718446,22.659001 20.0418446,22.665001 22.9258446,19.781001 L29.9258446,12.781001 C32.7578446,9.82600102 32.9058446,5.04100102 29.8948446,2.15600102 C28.4088446,0.732001022 26.4688446,-0.000998978188 24.5508446,1.02181196e-06 L24.5508446,1.02181196e-06 Z M14.4568446,10.000001 C12.5388446,10.001001 10.6178446,10.714001 9.17584458,12.156001 L2.17584458,19.156001 C2.1757378,19.1663341 2.1757378,19.176668 2.17584458,19.187001 C-0.656155422,22.142001 -0.804155422,26.927001 2.20684458,29.812001 C5.17784458,32.659001 9.91684458,32.665001 12.8008446,29.781001 L16.8008446,25.781001 L14.6758446,23.656001 L10.6758446,27.656001 C8.95984458,29.372001 6.12984458,29.409001 4.30084458,27.656001 C2.51184458,25.941001 2.56384458,23.126001 4.33184458,21.281001 L11.3008446,14.281001 C13.0168446,12.565001 15.8778446,12.560001 17.7068446,14.312001 L19.8008446,12.156001 C18.3148446,10.732001 16.3748446,9.99900102 14.4568446,10.000001 L14.4568446,10.000001 Z" id="Shape"></path>
                </g>
            </g>
        </g>
    </g>
</svg>