<?xml version="1.0" encoding="UTF-8" standalone="no"?>
<svg width="12px" height="3px" viewBox="0 0 12 3" version="1.1" xmlns="http://www.w3.org/2000/svg" xmlns:xlink="http://www.w3.org/1999/xlink" xmlns:sketch="http://www.bohemiancoding.com/sketch/ns">
    <!-- Generator: Sketch 3.4 (15575) - http://www.bohemiancoding.com/sketch -->
    <title>Shape</title>
    <desc>Created with Sketch.</desc>
    <defs></defs>
    <g id="Page-1" stroke="none" stroke-width="1" fill="none" fill-rule="evenodd" sketch:type="MSPage">
        <g id="Slack" sketch:type="MSArtboardGroup" transform="translate(-1220.000000, -288.000000)" fill="#555459">
            <path d="M1221.36364,290.727273 C1222.11675,290.727273 1222.72727,290.116752 1222.72727,289.363636 C1222.72727,288.610521 1222.11675,288 1221.36364,288 C1220.61052,288 1220,288.610521 1220,289.363636 C1220,290.116752 1220.61052,290.727273 1221.36364,290.727273 L1221.36364,290.727273 L1221.36364,290.727273 Z M1226,290.727273 C1226.75312,290.727273 1227.36364,290.116752 1227.36364,289.363636 C1227.36364,288.610521 1226.75312,288 1226,288 C1225.24688,288 1224.63636,288.610521 1224.63636,289.363636 C1224.63636,290.116752 1225.24688,290.727273 1226,290.727273 L1226,290.727273 L1226,290.727273 Z M1230.63636,290.727273 C1231.38948,290.727273 1232,290.116752 1232,289.363636 C1232,288.610521 1231.38948,288 1230.63636,288 C1229.88325,288 1229.27273,288.610521 1229.27273,289.363636 C1229.27273,290.116752 1229.88325,290.727273 1230.63636,290.727273 L1230.63636,290.727273 L1230.63636,290.727273 Z" id="Shape" sketch:type="MSShapeGroup"></path>
        </g>
    </g>
</svg>