<?xml version="1.0" encoding="UTF-8" standalone="no"?>
<svg width="32px" height="32px" viewBox="0 0 32 32" version="1.1" xmlns="http://www.w3.org/2000/svg" xmlns:xlink="http://www.w3.org/1999/xlink" xmlns:sketch="http://www.bohemiancoding.com/sketch/ns">
    <!-- Generator: Sketch 3.4 (15575) - http://www.bohemiancoding.com/sketch -->
    <title>plus</title>
    <desc>Created with Sketch.</desc>
    <defs></defs>
    <g id="Page-1" stroke="none" stroke-width="1" fill="none" fill-rule="evenodd" sketch:type="MSPage">
        <g id="Slack" sketch:type="MSArtboardGroup" transform="translate(-391.000000, -177.000000)" fill="#FFFFFF">
            <g id="plus" sketch:type="MSLayerGroup" transform="translate(391.000000, 177.000000)">
                <path d="M15.9500122,28.6999969 L15.9500122,28.6999969 C22.9916428,28.6999969 28.7000122,22.9916275 28.7000122,15.9499969 C28.7000122,8.90836639 22.9916428,3.19999695 15.9500122,3.19999695 C8.90838165,3.19999695 3.20001221,8.90836639 3.20001221,15.9499969 C3.20001221,22.9916275 8.90838165,28.6999969 15.9500122,28.6999969 L15.9500122,28.6999969 Z M15.9500122,31.6999969 L15.9500122,31.6999969 C7.2515274,31.6999969 0.200012207,24.6484818 0.200012207,15.9499969 C0.200012207,7.25151214 7.2515274,0.199996948 15.9500122,0.199996948 C24.648497,0.199996948 31.7000122,7.25151214 31.7000122,15.9499969 C31.7000122,24.6484818 24.648497,31.6999969 15.9500122,31.6999969 L15.9500122,31.6999969 Z" id="Shape" sketch:type="MSShapeGroup"></path>
                <path d="M17.5,14.5 L17.5,9.00863659 C17.5,8.16642015 16.8284271,7.5 16,7.5 C15.1657972,7.5 14.5,8.17543961 14.5,9.00863659 L14.5,14.5 L9.00863659,14.5 C8.16642015,14.5 7.5,15.1715729 7.5,16 C7.5,16.8342028 8.17543961,17.5 9.00863659,17.5 L14.5,17.5 L14.5,22.9913634 C14.5,23.8335799 15.1715729,24.5 16,24.5 C16.8342028,24.5 17.5,23.8245604 17.5,22.9913634 L17.5,17.5 L22.9913634,17.5 C23.8335799,17.5 24.5,16.8284271 24.5,16 C24.5,15.1657972 23.8245604,14.5 22.9913634,14.5 L17.5,14.5 Z" id="Rectangle-43" sketch:type="MSShapeGroup"></path>
            </g>
        </g>
    </g>
</svg>