<?xml version="1.0" encoding="UTF-8" standalone="no"?>
<svg width="41px" height="48px" viewBox="0 0 41 48" version="1.1" xmlns="http://www.w3.org/2000/svg" xmlns:xlink="http://www.w3.org/1999/xlink" xmlns:sketch="http://www.bohemiancoding.com/sketch/ns">
    <!-- Generator: Sketch 3.4 (15575) - http://www.bohemiancoding.com/sketch -->
    <title>Rectangle 43</title>
    <desc>Created with Sketch.</desc>
    <defs></defs>
    <g id="Page-1" stroke="none" stroke-width="1" fill="none" fill-rule="evenodd" sketch:type="MSPage">
        <g id="Slack" sketch:type="MSArtboardGroup" transform="translate(-496.000000, -149.000000)" fill="#555459">
            <path d="M505.021813,179.740512 L507.239195,165.740512 L500.502912,165.740512 C499.120592,165.740512 498,164.63085 498,163.240512 C498,161.8598 499.113595,160.740512 500.502912,160.740512 L508.031117,160.740512 L509.557708,151.101995 C509.773022,149.742556 511.043569,148.814103 512.416789,149.0316 C513.780502,149.247591 514.711103,150.527009 514.49615,151.884167 L513.093443,160.740512 L523.031117,160.740512 L524.557708,151.101995 C524.773022,149.742556 526.043569,148.814103 527.416789,149.0316 C528.780502,149.247591 529.711103,150.527009 529.49615,151.884167 L528.093443,160.740512 L534.097086,160.740512 C535.479407,160.740512 536.599998,161.850174 536.599998,163.240512 C536.599998,164.621224 535.486404,165.740512 534.097086,165.740512 L527.30152,165.740512 L525.084138,179.740512 L532.097086,179.740512 C533.479407,179.740512 534.599998,180.850174 534.599998,182.240512 C534.599998,183.621224 533.486404,184.740512 532.097086,184.740512 L524.292216,184.740512 L522.82959,193.975169 C522.614276,195.334607 521.34373,196.26306 519.970509,196.045563 C518.606796,195.829572 517.676196,194.550154 517.891148,193.192996 L519.22989,184.740512 L509.292216,184.740512 L507.82959,193.975169 C507.614276,195.334607 506.34373,196.26306 504.970509,196.045563 C503.606796,195.829572 502.676196,194.550154 502.891148,193.192996 L504.22989,184.740512 L498.502912,184.740512 C497.120592,184.740512 496,183.63085 496,182.240512 C496,180.8598 497.113595,179.740512 498.502912,179.740512 L505.021813,179.740512 Z M510.084138,179.740512 L512.30152,165.740512 L522.239195,165.740512 L520.021813,179.740512 L510.084138,179.740512 Z" id="Rectangle-43" sketch:type="MSShapeGroup"></path>
        </g>
    </g>
</svg>