<?xml version="1.0" encoding="UTF-8" standalone="no"?>
<svg width="14px" height="14px" viewBox="0 0 14 14" version="1.1" xmlns="http://www.w3.org/2000/svg" xmlns:xlink="http://www.w3.org/1999/xlink" xmlns:sketch="http://www.bohemiancoding.com/sketch/ns">
    <!-- Generator: Sketch 3.4 (15575) - http://www.bohemiancoding.com/sketch -->
    <title>Rectangle 43</title>
    <desc>Created with Sketch.</desc>
    <defs></defs>
    <g id="Page-1" stroke="none" stroke-width="1" fill="none" fill-rule="evenodd" sketch:type="MSPage">
        <g id="Slack" sketch:type="MSArtboardGroup" transform="translate(-424.000000, -277.000000)" fill="#000000">
            <path d="M432,283 L432,278.006845 C432,277.449949 431.552285,277 431,277 C430.443865,277 430,277.45078 430,278.006845 L430,283 L425.006845,283 C424.449949,283 424,283.447715 424,284 C424,284.556135 424.45078,285 425.006845,285 L430,285 L430,289.993155 C430,290.550051 430.447715,291 431,291 C431.556135,291 432,290.54922 432,289.993155 L432,285 L436.993155,285 C437.550051,285 438,284.552285 438,284 C438,283.443865 437.54922,283 436.993155,283 L432,283 Z" id="Rectangle-43" sketch:type="MSShapeGroup"></path>
        </g>
    </g>
</svg>